<svg width="73" height="25" viewBox="0 0 73 25" fill="none" xmlns="http://www.w3.org/2000/svg">
<path d="M37.9395 0.25L37.9258 0.299805H66.291C67.5063 0.299805 68.574 0.576686 69.4844 1.13867C70.3919 1.699 71.0558 2.46125 71.4688 3.42188L71.4697 3.42285C71.7481 4.07665 71.8923 4.77089 71.9043 5.50293C71.9163 6.23326 71.8026 6.94668 71.5625 7.6416L71.5615 7.64258C71.3242 8.31798 70.9985 8.98598 70.5859 9.64551C70.1702 10.31 69.6655 10.9164 69.0732 11.4648C68.485 12.0096 67.8493 12.4911 67.167 12.9111L67.168 12.9121C66.4905 13.3363 65.7489 13.6685 64.9443 13.9082H64.9414C64.1473 14.1369 63.3516 14.2519 62.5547 14.252H40.3398C39.5229 14.252 38.7256 14.4839 37.9453 14.957L37.6113 15.1748C36.7387 15.7822 36.1328 16.5266 35.7832 17.4072L33.7646 24.5674L33.7129 24.75H30.1504L30.2383 24.4336L32.2793 17.04L32.2822 17.0293L32.4375 16.5908C32.8298 15.5802 33.4271 14.6595 34.2256 13.8291C35.1368 12.8703 36.2024 12.1275 37.4209 11.6025C38.6384 11.0668 39.8833 10.7979 41.1533 10.7979H63.3672C64.782 10.7979 65.9667 10.262 66.9355 9.17871L67.0801 9.01172C67.781 8.17296 68.1385 7.27026 68.1689 6.2998C68.1852 5.77053 68.0957 5.3338 67.9121 4.97949C67.7293 4.62688 67.4464 4.34078 67.0527 4.12305C66.6377 3.89285 66.1109 3.77052 65.4609 3.77051H35.9453L35.959 3.7207H0.328125L0.414062 3.40527L1.22754 0.433594L1.27734 0.25H37.9395Z" fill="url(#paint0_linear_2547_4523)" stroke="url(#paint1_linear_2547_4523)" stroke-width="0.5"/>
<defs>
<linearGradient id="paint0_linear_2547_4523" x1="-2.42425" y1="14.8367" x2="220.132" y2="14.8367" gradientUnits="userSpaceOnUse">
<stop stop-color="#243B74"/>
<stop offset="1" stop-color="#B6B6B6"/>
</linearGradient>
<linearGradient id="paint1_linear_2547_4523" x1="-2.42425" y1="14.8367" x2="220.132" y2="14.8367" gradientUnits="userSpaceOnUse">
<stop stop-color="#F0ECE6"/>
<stop offset="1" stop-color="#8A8884"/>
</linearGradient>
</defs>
</svg>
