<svg width="100" height="100" viewBox="0 0 100 100" fill="none" xmlns="http://www.w3.org/2000/svg">
<rect width="100" height="100" rx="13" fill="url(#paint0_linear_2598_5142)"/>
<g filter="url(#filter0_d_2598_5142)">
<path d="M35.4973 40.847H32.5913H17L17.7673 38H51.8723L51.0887 40.847H35.4973Z" fill="url(#paint1_linear_2598_5142)"/>
<path d="M49.9269 54.1224L48.0168 61H45.1434L47.0698 53.9145C47.4181 52.8162 48.0113 51.8245 48.8494 50.9395C49.6874 50.0438 50.667 49.3507 51.7881 48.8602C52.9091 48.3591 54.0519 48.1085 55.2165 48.1085H76.1791C77.5831 48.1085 78.764 47.5647 79.7218 46.4771C80.5055 45.592 80.9136 44.6217 80.9463 43.5661C80.9789 42.4891 80.5871 41.7214 79.7708 41.2629C79.3354 41.0176 78.7967 40.895 78.1545 40.895H50.6126L51.3962 38.048H78.9382C80.0483 38.048 81.0116 38.3039 81.8279 38.8157C82.6442 39.3275 83.2373 40.0206 83.6074 40.895C83.8577 41.4921 83.9883 42.1266 83.9992 42.7983C84.0101 43.4701 83.9067 44.1259 83.689 44.7656C83.4714 45.3948 83.172 46.0185 82.7911 46.637C82.4102 47.2554 81.9476 47.8206 81.4034 48.3324C80.8592 48.8442 80.2715 49.2974 79.6402 49.6919C79.0198 50.0865 78.3396 50.3957 77.5994 50.6196C76.8702 50.8329 76.141 50.9395 75.4118 50.9395H54.4492C53.5132 50.9395 52.6098 51.2487 51.7391 51.8672C50.8792 52.475 50.2752 53.2267 49.9269 54.1224Z" fill="url(#paint2_linear_2598_5142)"/>
<path d="M52.2002 37.75L52.1875 37.7979H78.9385C80.0882 37.7979 81.0992 38.0632 81.9609 38.6035C82.7126 39.0748 83.2863 39.6954 83.6797 40.4609L83.8379 40.7979C84.1009 41.4253 84.2376 42.0917 84.249 42.7939C84.2604 43.4945 84.1526 44.179 83.9258 44.8457L83.9248 44.8477C83.7007 45.4954 83.3935 46.1361 83.0039 46.7686C82.6111 47.4062 82.1339 47.9883 81.5742 48.5146C81.0186 49.0372 80.418 49.4994 79.7734 49.9023C79.133 50.3096 78.4325 50.6293 77.6719 50.8594H77.6699C76.919 51.079 76.1659 51.1894 75.4121 51.1895H54.4492C53.6816 51.1895 52.9319 51.4107 52.1973 51.8633L51.8838 52.0713C51.0629 52.6516 50.4924 53.3623 50.1631 54.2041L48.2578 61.0674L48.207 61.25H44.8164L44.9023 60.9346L46.8281 53.8486L46.8311 53.8389L46.9785 53.418C47.3491 52.4482 47.9133 51.5645 48.668 50.7676C49.5289 49.8478 50.5358 49.1348 51.6875 48.6309C52.8383 48.1166 54.0157 47.8584 55.2168 47.8584H76.1787C77.5083 47.8584 78.6221 47.3472 79.5342 46.3115L79.6709 46.1514C80.3306 45.3495 80.6675 44.4868 80.6963 43.5586C80.7117 43.0518 80.6267 42.634 80.4541 42.2959C80.2825 41.9598 80.0174 41.6877 79.6484 41.4805C79.2597 41.2615 78.7654 41.1445 78.1543 41.1445H50.2842L50.2979 41.0967H16.6738L16.7588 40.7822L17.5264 37.9346L17.5762 37.75H52.2002Z" stroke="url(#paint3_linear_2598_5142)" stroke-width="0.5"/>
</g>
<defs>
<filter id="filter0_d_2598_5142" x="6.34741" y="31.5" width="88.1526" height="44" filterUnits="userSpaceOnUse" color-interpolation-filters="sRGB">
<feFlood flood-opacity="0" result="BackgroundImageFix"/>
<feColorMatrix in="SourceAlpha" type="matrix" values="0 0 0 0 0 0 0 0 0 0 0 0 0 0 0 0 0 0 127 0" result="hardAlpha"/>
<feMorphology radius="2" operator="erode" in="SourceAlpha" result="effect1_dropShadow_2598_5142"/>
<feOffset dy="4"/>
<feGaussianBlur stdDeviation="6"/>
<feComposite in2="hardAlpha" operator="out"/>
<feColorMatrix type="matrix" values="0 0 0 0 0 0 0 0 0 0 0 0 0 0 0 0 0 0 0.15 0"/>
<feBlend mode="normal" in2="BackgroundImageFix" result="effect1_dropShadow_2598_5142"/>
<feBlend mode="normal" in="SourceGraphic" in2="effect1_dropShadow_2598_5142" result="shape"/>
</filter>
<linearGradient id="paint0_linear_2598_5142" x1="-1.89245e-06" y1="100" x2="72" y2="36.5" gradientUnits="userSpaceOnUse">
<stop stop-color="#7A2338"/>
<stop offset="1" stop-color="#1A2A52"/>
</linearGradient>
<linearGradient id="paint1_linear_2598_5142" x1="14.094" y1="51.7393" x2="224.111" y2="51.7393" gradientUnits="userSpaceOnUse">
<stop stop-color="#F0ECE6"/>
<stop offset="1" stop-color="#B6B6B6"/>
</linearGradient>
<linearGradient id="paint2_linear_2598_5142" x1="14.094" y1="51.7393" x2="224.111" y2="51.7393" gradientUnits="userSpaceOnUse">
<stop stop-color="#F0ECE6"/>
<stop offset="1" stop-color="#B6B6B6"/>
</linearGradient>
<linearGradient id="paint3_linear_2598_5142" x1="14.094" y1="51.7393" x2="224.111" y2="51.7393" gradientUnits="userSpaceOnUse">
<stop stop-color="#F0ECE6"/>
<stop offset="1" stop-color="#8A8884"/>
</linearGradient>
</defs>
</svg>
